<svg height="512pt" viewBox="0 0 512 512" width="512pt" xmlns="http://www.w3.org/2000/svg"><path d="m209.757812 487.726562h33.6875v24.273438h-33.6875zm0 0" fill="#edd4c2"/><path d="m79.988281 0h98.65625v78.027344h-98.65625zm0 0" fill="#5861c7"/><path d="m79.988281 0h98.65625v10h-98.65625zm0 0" fill="#6770e6"/><path d="m201.253906 78.027344h-143.871094c-3.789062 0-7.222656 2.210937-8.757812 5.640625l-32.359375 72.269531c-1.066406 2.382812.695313 5.0625 3.328125 5.0625h219.449219c2.632812 0 4.394531-2.679688 3.328125-5.0625l-32.359375-72.273438c-1.539063-3.425781-4.96875-5.636718-8.757813-5.636718zm0 0" fill="#6770e6"/><path d="m258.636719 310.523438h-258.636719v-39.121094c0-4.5 3.648438-8.144532 8.148438-8.144532h242.339843c4.5 0 8.148438 3.644532 8.148438 8.144532zm0 0" fill="#edd4c2"/><path d="m258.636719 310.523438h-258.636719v169.054687c0 4.5 3.648438 8.148437 8.148438 8.148437h242.339843c4.5 0 8.148438-3.648437 8.148438-8.148437zm0 0" fill="#ffefe4"/><path d="m238.429688 350.527344v117.199218h-218.222657v-117.199218zm0 0" fill="#edd4c2"/><path d="m222.265625 366.527344v85.199218h-185.894531v-85.199218zm0 0" fill="#69ebfc"/><path d="m15.191406 487.726562h33.6875v24.273438h-33.6875zm0 0" fill="#edd4c2"/><path d="m15.191406 502h33.6875v10h-33.6875zm0 0" fill="#dbc4b4"/><path d="m209.757812 502h33.6875v10h-33.6875zm0 0" fill="#dbc4b4"/><path d="m36.371094 397h185.894531v12.171875h-185.894531zm0 0" fill="#5fd4e3"/><path d="m13.15625 322.4375h232.324219v12.171875h-232.324219zm0 0" fill="#5fd4e3"/><path d="m16.105469 339.863281h-3.765625c-2.265625 0-4.101563-1.835937-4.101563-4.101562v-14.472657c0-2.265624 1.835938-4.101562 4.101563-4.101562h3.765625c2.265625 0 4.101562 1.835938 4.101562 4.101562v14.472657c0 2.265625-1.835937 4.101562-4.101562 4.101562zm0 0" fill="#69ebfc"/><path d="m247.363281 339.863281h-3.765625c-2.265625 0-4.101562-1.835937-4.101562-4.101562v-14.472657c0-2.265624 1.835937-4.101562 4.101562-4.101562h3.765625c2.261719 0 4.097657 1.835938 4.097657 4.101562v14.472657c0 2.265625-1.835938 4.101562-4.097657 4.101562zm0 0" fill="#69ebfc"/><g fill="#6770e6"><path d="m39.632812 286.890625c0-8.582031-7.027343-15.539063-15.695312-15.539063-8.671875 0-15.699219 6.957032-15.699219 15.539063s7.027344 15.539063 15.699219 15.539063c8.667969 0 15.695312-6.957032 15.695312-15.539063zm0 0"/><path d="m153.808594 286.890625c0-6.066406-4.96875-10.988281-11.097656-10.988281-6.132813 0-11.101563 4.921875-11.101563 10.988281s4.96875 10.984375 11.101563 10.984375c6.128906 0 11.097656-4.917969 11.097656-10.984375zm0 0"/><path d="m186.359375 286.890625c0-6.066406-4.96875-10.988281-11.097656-10.988281-6.132813 0-11.101563 4.921875-11.101563 10.988281s4.96875 10.984375 11.101563 10.984375c6.128906 0 11.097656-4.917969 11.097656-10.984375zm0 0"/><path d="m218.910156 286.890625c0-6.066406-4.96875-10.988281-11.097656-10.988281-6.132812 0-11.101562 4.921875-11.101562 10.988281s4.96875 10.984375 11.101562 10.984375c6.128906 0 11.097656-4.917969 11.097656-10.984375zm0 0"/><path d="m251.464844 286.890625c0-6.066406-4.96875-10.988281-11.101563-10.988281-6.128906 0-11.097656 4.921875-11.097656 10.988281s4.96875 10.984375 11.097656 10.984375c6.132813 0 11.101563-4.917969 11.101563-10.984375zm0 0"/></g><path d="m109.511719 256h-82.050781c-4.007813 0-7.253907 3.246094-7.253907 7.257812h96.5625c-.003906-4.011718-3.25-7.257812-7.257812-7.257812zm0 0" fill="#5861c7"/><path d="m231.175781 256h-83.046875c-4.007812 0-7.253906 3.246094-7.253906 7.257812h97.554688c0-4.011718-3.246094-7.257812-7.253907-7.257812zm0 0" fill="#5861c7"/><path d="m503.875 512h-237.113281c-4.488281 0-8.125-3.636719-8.125-8.125v-232.492188c0-4.488281 3.636719-8.125 8.125-8.125h237.109375c4.488281 0 8.125 3.636719 8.125 8.125v232.492188c.003906 4.488281-3.632813 8.125-8.121094 8.125zm0 0" fill="#6770e6"/><path d="m503.875 502h-237.113281c-4.488281 0-8.125-3.636719-8.125-8.125v10c0 4.488281 3.636719 8.125 8.125 8.125h237.109375c4.488281 0 8.125-3.636719 8.125-8.125v-10c.003906 4.488281-3.632813 8.125-8.121094 8.125zm0 0" fill="#5861c7"/><path d="m278.636719 347.773438v-60.664063c0-2.128906 1.726562-3.851563 3.851562-3.851563h205.65625c2.128907 0 3.851563 1.722657 3.851563 3.851563v60.664063c0 2.128906-1.722656 3.855468-3.851563 3.855468h-205.65625c-2.125 0-3.851562-1.726562-3.851562-3.855468zm0 0" fill="#5861c7"/><path d="m278.636719 487.519531v-112.664062c0-2.128907 1.726562-3.855469 3.851562-3.855469h205.65625c2.128907 0 3.851563 1.726562 3.851563 3.855469v112.664062c0 2.125-1.722656 3.851563-3.851563 3.851563h-205.65625c-2.125 0-3.851562-1.726563-3.851562-3.851563zm0 0" fill="#5861c7"/><path d="m412.835938 326.207031h-57.066407c-2.207031 0-4-1.792969-4-4v-12.949219c0-2.210937 1.792969-4 4-4s4 1.789063 4 4v8.949219h49.066407v-8.949219c0-2.210937 1.792968-4 4-4 2.207031 0 4 1.789063 4 4v12.949219c0 2.207031-1.792969 4-4 4zm0 0" fill="#69ebfc"/><path d="m412.835938 413.953125h-57.066407c-2.207031 0-4-1.792969-4-4v-12.953125c0-2.207031 1.792969-4 4-4s4 1.792969 4 4v8.953125h49.066407v-8.953125c0-2.207031 1.792968-4 4-4 2.207031 0 4 1.792969 4 4v12.953125c0 2.207031-1.792969 4-4 4zm0 0" fill="#69ebfc"/><path d="m503.875 161h-237.113281c-4.488281 0-8.125-3.636719-8.125-8.125v-144.75c0-4.488281 3.636719-8.125 8.125-8.125h237.109375c4.492187 0 8.128906 3.636719 8.128906 8.125v144.75c0 4.488281-3.636719 8.125-8.125 8.125zm0 0" fill="#6770e6"/><path d="m503.875 0h-237.113281c-4.488281 0-8.125 3.636719-8.125 8.125v10c0-4.488281 3.636719-8.125 8.125-8.125h237.109375c4.492187 0 8.128906 3.636719 8.128906 8.125v-10c0-4.488281-3.636719-8.125-8.125-8.125zm0 0" fill="#8f95e6"/><path d="m278.636719 136.519531v-112.664062c0-2.128907 1.726562-3.855469 3.851562-3.855469h87.960938c2.125 0 3.851562 1.726562 3.851562 3.855469v112.664062c0 2.125-1.726562 3.851563-3.851562 3.851563h-87.960938c-2.125 0-3.851562-1.726563-3.851562-3.851563zm0 0" fill="#5861c7"/><path d="m396.335938 136.519531v-112.664062c0-2.128907 1.722656-3.855469 3.851562-3.855469h87.957031c2.128907 0 3.855469 1.726562 3.855469 3.855469v112.664062c0 2.125-1.726562 3.851563-3.855469 3.851563h-87.957031c-2.128906 0-3.851562-1.726563-3.851562-3.851563zm0 0" fill="#5861c7"/><path d="m354.300781 80.5c0 3.949219-3.203125 7.152344-7.152343 7.152344-3.953126 0-7.15625-3.203125-7.15625-7.152344s3.203124-7.152344 7.15625-7.152344c3.949218 0 7.152343 3.203125 7.152343 7.152344zm0 0" fill="#69ebfc"/><path d="m430.640625 80.5c0 3.949219-3.203125 7.152344-7.152344 7.152344-3.953125 0-7.152343-3.203125-7.152343-7.152344s3.199218-7.152344 7.152343-7.152344c3.949219 0 7.152344 3.203125 7.152344 7.152344zm0 0" fill="#69ebfc"/></svg>